<svg xmlns="http://www.w3.org/2000/svg" version="1.1" xmlns:xlink="http://www.w3.org/1999/xlink" width="512" height="512" x="0" y="0" viewBox="0 0 600 600" style="enable-background:new 0 0 512 512" xml:space="preserve" fill-rule="evenodd" class=""><g><path d="M531.381 254.032a120.058 120.058 0 0 0-45.059-93.75L354.593 54.899c-30.633-24.507-74.105-24.703-104.958-.474l-134.7 105.778a120.062 120.062 0 0 0-45.908 94.424v257.845a48.912 48.912 0 0 0 48.912 48.913h364.529a48.912 48.912 0 0 0 48.913-48.913zm-26.68 0v258.44a22.234 22.234 0 0 1-22.232 22.234h-364.53a22.234 22.234 0 0 1-22.233-22.234V254.627a93.38 93.38 0 0 1 35.707-73.441l134.7-105.778c21.11-16.578 50.854-16.443 71.813.324l131.729 105.383a93.38 93.38 0 0 1 35.046 72.917zm-201.619-1.004c-51.491 0-93.296 41.805-93.296 93.296s41.805 93.295 93.296 93.295 93.295-41.804 93.295-93.295-41.804-93.296-93.295-93.296zm0 26.68c36.766 0 66.615 29.85 66.615 66.616s-29.849 66.615-66.615 66.615-66.616-29.849-66.616-66.615 29.85-66.616 66.616-66.616z" fill="#000000" opacity="1" data-original="#000000" class=""></path></g></svg>