<svg xmlns="http://www.w3.org/2000/svg" version="1.1" xmlns:xlink="http://www.w3.org/1999/xlink" width="512" height="512" x="0" y="0" viewBox="0 0 100 100" style="enable-background:new 0 0 512 512" xml:space="preserve" class=""><g><path fill-rule="evenodd" d="M10.62 21.75c-3.1 0-5.62 2.53-5.62 5.62V33h90v-5.62c0-3.09-2.52-5.62-5.62-5.62H10.62zM95 44.25H5v28.12C5 75.47 7.52 78 10.62 78h78.75c3.11 0 5.62-2.53 5.62-5.62V44.25zm-33.75 22.5c0-1.55 1.26-2.81 2.81-2.81h22.5c1.55 0 2.81 1.27 2.81 2.81s-1.26 2.81-2.81 2.81h-22.5c-1.55 0-2.81-1.27-2.81-2.81zm-45-5.63c-3.11 0-5.62 2.53-5.62 5.62s2.52 5.62 5.62 5.62h5.62c3.11 0 5.62-2.53 5.62-5.62s-2.52-5.62-5.62-5.62z" clip-rule="evenodd" fill="#000000" opacity="1" data-original="#000000" class=""></path></g></svg>