<svg xmlns="http://www.w3.org/2000/svg" version="1.1" xmlns:xlink="http://www.w3.org/1999/xlink" width="512" height="512" x="0" y="0" viewBox="0 0 512 512" style="enable-background:new 0 0 512 512" xml:space="preserve" class=""><g><path fill-rule="evenodd" d="M82.936 30.679h235.561v46.155c0 11.061 8.987 20.048 20.048 20.048H384.7v111.067a105.233 105.233 0 0 0-42.841-14.659v-60.02c0-6.473-2.481-12.462-7.057-17.039l-45.461-45.46c-4.577-4.577-10.566-7.058-17.039-7.058H74.84V38.776c0-4.459 3.637-8.097 8.096-8.097zM356.069 275.86a7.999 7.999 0 0 1-14.75 6.188c-2.416-5.754-8.474-8.079-14.335-6.899-3.942.794-7.956 3.33-7.738 7.84.252 5.204 7.803 6.728 11.856 7.394 12.885 2.115 25.346 7.657 27.114 22.222.072.597.119 1.343.139 2.227.296 12.435-9.379 20.001-20.593 22.42v1.93a8 8 0 0 1-16 0v-2.093c-9.931-2.428-17.848-9.238-20.379-19.395a7.981 7.981 0 0 1 15.5-3.812c1.492 5.988 7.907 8.371 13.532 8.236a23.005 23.005 0 0 0 2.132-.179c3.556-.431 9.98-2.151 9.871-6.732a12.787 12.787 0 0 0-.077-.727c-.72-5.934-9.003-7.56-13.801-8.347-12.51-2.054-24.539-8.132-25.231-22.394-.575-11.822 7.52-20.693 18.453-23.715v-2.227a8 8 0 0 1 16 0v2.119c7.678 2.057 14.628 7.182 18.307 15.944zM493.53 424.059l-49.364-47.902c-3.225-3.13-8.427-3.052-11.556.173l-1.015 1.047-28.179-27.344c10.233-14.593 16.241-32.365 16.241-51.541 0-49.646-40.246-89.893-89.892-89.893s-89.892 40.247-89.892 89.893 40.246 89.892 89.892 89.892c22.292 0 42.686-8.119 58.396-21.555l27.643 26.824-1.015 1.046c-3.129 3.225-3.052 8.426.174 11.556l49.365 47.901c3.226 3.13 8.425 3.053 11.556-.173l17.823-18.368c3.127-3.227 3.048-8.426-.177-11.556zm-163.768-61.266c-35.515 0-64.305-28.79-64.305-64.305s28.79-64.305 64.305-64.305 64.305 28.79 64.305 64.305-28.791 64.305-64.305 64.305zM275.656 80.415v45.453a4.056 4.056 0 0 0 4.048 4.048h45.453a8.12 8.12 0 0 0-1.67-2.371l-45.461-45.461a8.104 8.104 0 0 0-2.37-1.669zM384.7 389.028v35.162c0 4.459-3.637 8.097-8.097 8.097H341.86v-28.592a105.37 105.37 0 0 0 42.84-14.667zM85.208 219.852 96.7 231.345c3.384 3.384 8.937 3.051 11.911-.67l16.362-20.228a7.999 7.999 0 0 0-1.188-11.25 7.999 7.999 0 0 0-11.25 1.188l-10.809 13.362-5.207-5.207a7.998 7.998 0 1 0-11.311 11.312zm0 188.733a7.998 7.998 0 0 1 0-11.312 7.998 7.998 0 0 1 11.312 0l5.207 5.207 10.809-13.362c2.779-3.435 7.815-3.966 11.25-1.187a8 8 0 0 1 1.188 11.25l-16.363 20.227c-2.971 3.722-8.529 4.052-11.911.67zm0-94.366a7.998 7.998 0 0 1 0-11.312 7.998 7.998 0 0 1 11.312 0l5.207 5.207 10.809-13.362a8 8 0 0 1 12.438 10.062l-16.363 20.227c-2.971 3.722-8.529 4.052-11.911.67zm94.431-25.863h44.718c4.982-52.446 48.224-93.746 101.503-95.678v-46.761h-46.155c-11.061 0-20.048-8.988-20.048-20.048V79.713H24.096c-4.46 0-8.097 3.637-8.097 8.097v385.414c0 4.459 3.637 8.097 8.097 8.097h293.667c4.46 0 8.097-3.637 8.097-8.097v-68.921c-19.433-.705-37.532-6.643-52.925-16.453a8 8 0 0 1-7.469 10.871h-85.827a8 8 0 0 1 0-16h85.827l.134.002c-16.854-12.86-29.736-30.662-36.48-51.243h-49.481a8 8 0 0 1 0-16h45.596c-.589-3.649-.994-7.36-1.199-11.125H179.64a8 8 0 0 1-.001-15.999zm85.827-94.366a8 8 0 0 1 0 16h-85.827a8 8 0 0 1 0-16zm-127.6 236.507c0 3.764-3.08 6.844-6.844 6.844H78.597c-3.764 0-6.844-3.079-6.844-6.844v-52.424c0-3.764 3.08-6.844 6.844-6.844h52.425c3.764 0 6.844 3.079 6.844 6.844zm0-94.366c0 3.764-3.08 6.843-6.844 6.843H78.597c-3.764 0-6.844-3.08-6.844-6.843v-52.425c0-3.764 3.08-6.844 6.844-6.844h52.425c3.764 0 6.844 3.08 6.844 6.844zm0-94.367c0 3.764-3.08 6.844-6.844 6.844H78.597c-3.764 0-6.844-3.08-6.844-6.844V189.34c0-3.764 3.08-6.844 6.844-6.844h52.425c3.764 0 6.844 3.08 6.844 6.844zm41.773 168.083h55.868a8 8 0 0 1 0 16h-55.868a8 8 0 0 1 0-16zM71.754 137.916a8 8 0 0 1 0-16h148.369a8 8 0 0 1 0 16zm107.885 83.199h55.868a8 8 0 0 1 0 16h-55.868a8 8 0 0 1 0-16zM334.497 31.381v45.453a4.055 4.055 0 0 0 4.048 4.048h45.453a8.12 8.12 0 0 0-1.67-2.371l-45.461-45.46a8.089 8.089 0 0 0-2.37-1.67z" clip-rule="evenodd" fill="#000000" opacity="1" data-original="#000000"></path></g></svg>