<svg xmlns="http://www.w3.org/2000/svg" version="1.1" xmlns:xlink="http://www.w3.org/1999/xlink" width="512" height="512" x="0" y="0" viewBox="0 0 64 64" style="enable-background:new 0 0 512 512" xml:space="preserve" class=""><g><path d="M50.44 34.19a8.793 8.793 0 0 0-3.56-3.24 32.713 32.713 0 0 0-10.58-3.21c3.71-3.04 6.07-9.44 6.07-13.37a10.37 10.37 0 0 0-20.74-.05c-.013 3.956 2.346 10.361 6.07 13.42a33.149 33.149 0 0 0-10.58 3.21 8.747 8.747 0 0 0-2 1.37c.23.58.51 1.26.84 1.99 1.958 4.532 4.486 8.482 8.37 11.4a.998.998 0 0 1-1.22 1.58 27.694 27.694 0 0 1-8.41-10.92c-.39-.82-.74-1.62-1.04-2.33a8.758 8.758 0 0 0-1.41 4.79V59a1.003 1.003 0 0 0 1 1h37.5a1.003 1.003 0 0 0 1-1V38.83a8.847 8.847 0 0 0-1.31-4.64zm-26.8-19.34a36.88 36.88 0 0 0 16.72 0c-.25 4.95-4.18 12.59-8.36 12.59s-8.11-7.64-8.36-12.59zM49.75 58h-7.38V44.94a1.022 1.022 0 1 0-2 .33c-7.359-1.601-13.915-7.024-17.52-14.45a31.375 31.375 0 0 1 23.13 1.92 6.757 6.757 0 0 1 3.77 6.09z" fill="#000000" opacity="1" data-original="#000000"></path></g></svg>