<svg xmlns="http://www.w3.org/2000/svg" version="1.1" xmlns:xlink="http://www.w3.org/1999/xlink" width="512" height="512" x="0" y="0" viewBox="0 0 512 512" style="enable-background:new 0 0 512 512" xml:space="preserve" class=""><g><path fill-rule="evenodd" d="M512 161.7c-.8 33.2-15.1 69.4-43.3 109.8h-87.4L336.2 77.7c-.4-1.8-2.1-3.2-4-3.2-2 0-3.6 1.3-4 3.2l-60.5 257.5-41.4-141c-.5-1.6-2-2.9-3.7-3-1.8-.1-3.3.8-4 2.4l-35.8 78h-140C15 231.2 1 195 .1 161.7c-.9-34.4 12.7-65.9 40.6-93.8 28.5-28.4 63.2-42.5 98.7-42.5 39.2 0 79.4 17.2 113.6 51.3 1.7 1.6 4.3 1.6 5.9 0C289 46.4 326.5 28.3 364 25.8c39.8-2.6 76.8 12 107 42.1 28.1 28.2 41.8 59.6 41 93.8zm-68.8 143c7.1-8.5 13.6-16.7 19.5-24.9h-84.9c-2 0-3.6-1.3-4-3.2L332 97l-60.1 255.4c-.4 1.9-2.1 3.2-3.9 3.2h-.1c-1.8 0-3.4-1.2-3.9-3l-42.6-145.4-32.3 70.4c-.6 1.4-2.1 2.4-3.7 2.4H48.7c6.8 9.3 14.3 18.9 22.5 28.7 40.3 48 91.4 93.7 132.5 130.5 20.2 18 37.8 33.8 51.9 47.6 15.8-15.5 35.2-33 55.7-51.5 43.5-39.3 92.7-83.6 131.9-130.6z" clip-rule="evenodd" fill="#000000" opacity="1" data-original="#000000" class=""></path></g></svg>