<svg xmlns="http://www.w3.org/2000/svg" version="1.1" xmlns:xlink="http://www.w3.org/1999/xlink" width="512" height="512" x="0" y="0" viewBox="0 0 120 120" style="enable-background:new 0 0 512 512" xml:space="preserve" class=""><g><g fill="#000"><path d="M17.117 31.965c9.274-16.703 29.758-24.757 50.32-20.518-3.56 1.381-7.033 3.704-10.182 6.492-7.112 6.295-13.887 16.004-18.853 27.583l-19.386-8.386c-2.02-.874-2.97-3.242-1.899-5.171zM103.154 73.53l-19.387-8.386c4.966-11.578 7.337-23.192 7.006-32.707-.146-4.214-.851-8.343-2.298-11.89C105.67 32.64 113.915 53.12 108.2 71.362c-.66 2.108-3.026 3.042-5.046 2.168z" fill="#000000" opacity="1" data-original="#000000" class=""></path><path d="m42.06 47.104 17.135 7.412L37.671 106h-25.68c-1.1 0-1.991.895-1.991 2s.892 2 1.991 2h95.595c1.1 0 1.991-.895 1.991-2s-.891-2-1.991-2H41.991l20.863-49.902 17.255 7.464a94.152 94.152 0 0 0 1.498-3.707c7.96-20.975 6.734-40.64-3.19-44.933-9.924-4.292-24.996 8.323-34.703 28.542a94.27 94.27 0 0 0-1.654 3.64z" fill="#000000" opacity="1" data-original="#000000" class=""></path></g></g></svg>