<svg xmlns="http://www.w3.org/2000/svg" version="1.1" xmlns:xlink="http://www.w3.org/1999/xlink" width="512" height="512" x="0" y="0" viewBox="0 0 64 64" style="enable-background:new 0 0 512 512" xml:space="preserve" class=""><g><path d="M54.93 26a3.615 3.615 0 0 0-4.02.91l-1.69 1.69-14.13-5.16a8.955 8.955 0 0 0-6.18 0L14.78 28.6l-1.69-1.69A3.615 3.615 0 0 0 9.07 26C7.21 26.77 6 28.93 6 31.51a6.579 6.579 0 0 0 1.64 4.51l11.35 11.79c.02.01.13.1.17.12l8.14 4.99a8.97 8.97 0 0 0 9.4 0l8.14-4.99c.04-.02.15-.11.17-.12l11.35-11.79A6.579 6.579 0 0 0 58 31.51c0-2.58-1.21-4.74-3.07-5.51zM32 47.82a3 3 0 0 1-1.18-.24l-6.21-2.66a1 1 0 0 1 .78-1.84l6.22 2.66a.99.99 0 0 0 .78 0l6.22-2.66a1 1 0 0 1 .78 1.84l-6.21 2.66a3 3 0 0 1-1.18.24zM22 38a1.003 1.003 0 0 1 1-1h18a1 1 0 0 1 0 2H23a1.003 1.003 0 0 1-1-1zm20.74-4.04-9.9-2.69a3.579 3.579 0 0 0-1.68 0l-9.9 2.69a.995.995 0 1 1-.52-1.92l9.89-2.7a5.304 5.304 0 0 1 2.74 0l9.89 2.7a.995.995 0 1 1-.52 1.92zm-33.65.68A4.648 4.648 0 0 1 8 31.5c0-1.99.95-3.29 1.84-3.66a1.619 1.619 0 0 1 1.84.49l1.59 1.58.46 1.49 3.78 12.08zm45.82 0-8.42 8.84 4.25-13.58 1.58-1.57a1.619 1.619 0 0 1 1.84-.49c.89.37 1.84 1.67 1.84 3.66a4.648 4.648 0 0 1-1.09 3.14z" fill="#000000" opacity="1" data-original="#000000"></path></g></svg>