<svg xmlns="http://www.w3.org/2000/svg" version="1.1" xmlns:xlink="http://www.w3.org/1999/xlink" width="512" height="512" x="0" y="0" viewBox="0 0 66 66" style="enable-background:new 0 0 512 512" xml:space="preserve" class=""><g><path d="M1.35 41.78h33l7.59-9.53h-33zM43.94 32.25l7.6 9.53h13.11l-7.59-9.53zM15.41 20.26v-2.65c0-.55.45-1 1-1s1 .45 1 1V30.24h31.18V17.61c0-.55.45-1 1-1s1 .45 1 1v2.65l3.09 2.87 6.94-9.11L50.5 3.91A6.52 6.52 0 0 0 45.9 2h-5.06c-.54 0-.99.39-1.06.92-.46 3.34-3.32 5.91-6.78 5.91s-6.32-2.57-6.77-5.91c-.07-.53-.53-.92-1.06-.92H20.1c-1.73 0-3.38.69-4.6 1.91L5.38 14.02l6.94 9.11zm21.97-4.09h6.92v4.92l-3.46 2.42-3.46-2.42z" fill="#000000" opacity="1" data-original="#000000" class=""></path><path d="M43.94 35.45V64h13.12V43.78h-6.48zM8.94 43.78V64h33V35.45l-6.63 8.33zm16.5 15.88H13.28v-5.18h12.16z" fill="#000000" opacity="1" data-original="#000000" class=""></path></g></svg>