<svg xmlns="http://www.w3.org/2000/svg" version="1.1" xmlns:xlink="http://www.w3.org/1999/xlink" width="512" height="512" x="0" y="0" viewBox="0 0 60 60" style="enable-background:new 0 0 512 512" xml:space="preserve" class=""><g><path d="M11.687 31.333a.795.795 0 0 0 .513-.182l17.426-13.786 2.764 2.185c.662-1.928 1.456-3.318 1.522-3.426a2.388 2.388 0 0 1 2.077-1.2c.273 0 .538.042.795.133.14.058.273.116.397.19.025-.033.05-.074.074-.108l-4.12-3.26a5.623 5.623 0 0 0-7.017 0l-14.15 11.196c-1.183.935-1.936 2.284-2.11 3.781s.248 2.98 1.183 4.162a.827.827 0 0 0 .646.315z" fill="#000000" opacity="1" data-original="#000000" class=""></path><path d="m29.626 19.475-16.4 12.975c-.066.05-.132.107-.207.149v17.26a.83.83 0 0 0 .827.828h10.178V40.302c0-.455.364-.827.828-.827H34.4a.83.83 0 0 1 .827.827v10.385h10.178a.83.83 0 0 0 .827-.827V33.716c-.678.281-1.407.496-2.193.654l-.09.016c-.133.017-.24.025-.373.025a2.365 2.365 0 0 1-1.796-.811 2.371 2.371 0 0 1-2.308.745c-4.758-1.026-7.43-4.063-7.935-9.036-.141-1.357.033-2.756.347-4.046z" fill="#000000" opacity="1" data-original="#000000" class=""></path><path d="M36.775 19.259a4.922 4.922 0 0 1-.06-1.814.745.745 0 0 0-.483-.825.746.746 0 0 0-.892.335c-.104.178-2.542 4.489-2.155 8.19.43 4.237 2.609 6.712 6.652 7.581.297.067.61-.06.773-.32a.739.739 0 0 0-.015-.84c-1.88-2.653-.394-4.303.595-5.395.104-.12.2-.23.282-.32a3.78 3.78 0 0 0 .58-.996c.245.647.394 1.48.17 2.468a.744.744 0 0 0 .862.892c.35-.067.84-.238 1.287-.565.156.981.037 2.43-1.323 3.85a.731.731 0 0 0-.12.87c.127.245.38.386.647.386.052 0 .097 0 .149-.007 2.705-.528 4.6-1.873 5.626-4.007 1.583-3.285.513-7.395-.037-8.443-.401-.78-.475-2.854-.423-3.984a.763.763 0 0 0-.372-.676.741.741 0 0 0-.773.015c-1.01.654-1.56 1.635-1.858 2.52-.23-.721-.32-1.703-.446-3.375-.26-3.315-3.308-5.292-3.441-5.374-.246-.156-.565-.148-.81.015s-.372.454-.32.744c.007.03.446 2.66-1.3 4.697-.447.52-2.008 2.408-2.795 4.378z" fill="#000000" opacity="1" data-original="#000000" class=""></path></g></svg>