<svg xmlns="http://www.w3.org/2000/svg" version="1.1" xmlns:xlink="http://www.w3.org/1999/xlink" width="512" height="512" x="0" y="0" viewBox="0 0 48 48" style="enable-background:new 0 0 512 512" xml:space="preserve" fill-rule="evenodd" class=""><g><path d="M24 9.876A9.004 9.004 0 0 0 16 5c-4.967 0-9 4.033-9 9s4.033 9 9 9a9.004 9.004 0 0 0 8-4.876A9.002 9.002 0 0 0 32 23c4.967 0 9-4.033 9-9s-4.033-9-9-9a9.004 9.004 0 0 0-8 4.876zM32 7c3.863 0 7 3.137 7 7s-3.137 7-7 7-7-3.137-7-7 3.137-7 7-7zM16 7c3.863 0 7 3.137 7 7s-3.137 7-7 7-7-3.137-7-7 3.137-7 7-7zM24 25.75c1.24-.484 2.589-.75 4-.75h8c6.075 0 11 4.925 11 11v4a3 3 0 0 1-3 3H4a3 3 0 0 1-3-3v-4c0-6.075 4.925-11 11-11h8c1.411 0 2.76.266 4 .75zM29 36v4a1 1 0 0 1-1 1H4a1 1 0 0 1-1-1v-4a9 9 0 0 1 9-9h8a9 9 0 0 1 9 9zm1.829 5H44a1 1 0 0 0 1-1v-4a9 9 0 0 0-9-9h-8c-.511 0-1.013.043-1.501.125A10.983 10.983 0 0 1 31 36v4c0 .351-.06.687-.171 1z" fill="#000000" opacity="1" data-original="#000000"></path></g></svg>