<svg xmlns="http://www.w3.org/2000/svg" version="1.1" xmlns:xlink="http://www.w3.org/1999/xlink" width="512" height="512" x="0" y="0" viewBox="0 0 512 512" style="enable-background:new 0 0 512 512" xml:space="preserve" class=""><g><path d="M504.485 217.165A7.514 7.514 0 0 0 512 209.65v-78.47c0-12.431-10.113-22.544-22.544-22.544h-7.808l-14.033-46.49c-3.591-11.899-16.19-18.663-28.096-15.068l-56.555 17.07c-3.974 1.199-6.222 5.392-5.023 9.365s5.389 6.224 9.365 5.022l56.555-17.069c3.967-1.2 8.169 1.056 9.366 5.022l12.722 42.148H287.586l70.962-21.419a7.514 7.514 0 0 0 5.023-9.365c-1.2-3.974-5.393-6.227-9.365-5.023l-118.629 35.806H105.805a7.515 7.515 0 1 0 0 15.03h383.651c4.144 0 7.515 3.371 7.515 7.515v71.479c-26.154 3.668-46.346 26.19-46.346 53.339s20.193 49.67 46.346 53.339v71.486c0 4.144-3.371 7.515-7.515 7.515h-66.975c-4.151 0-7.515 3.364-7.515 7.515s3.364 7.515 7.515 7.515h66.975c12.431 0 22.544-10.114 22.544-22.544v-78.479a7.514 7.514 0 0 0-7.515-7.515c-21.412 0-38.832-17.42-38.832-38.832.001-21.413 17.42-38.833 38.832-38.833zM392.423 388.336H22.544c-4.144 0-7.515-3.371-7.515-7.515V131.18c0-4.144 3.371-7.515 7.515-7.515h53.202a7.515 7.515 0 1 0 0-15.03H22.544C10.113 108.636 0 118.749 0 131.18v249.642c0 12.43 10.113 22.544 22.544 22.544h7.807l14.032 46.49c2.939 9.738 11.91 16.031 21.594 16.031 2.151 0 210.445-62.522 210.445-62.522h116c4.151 0 7.515-3.364 7.515-7.515s-3.364-7.514-7.514-7.514zm-324.286 62.2c-3.965 1.197-8.168-1.058-9.365-5.022L46.05 403.366h178.364z" fill="#000000" opacity="1" data-original="#000000"></path><path d="M312.478 195.759c0 4.151 3.364 7.515 7.515 7.515s7.515-3.364 7.515-7.515V180.73c0-4.151-3.364-7.515-7.515-7.515s-7.515 3.364-7.515 7.515zM312.478 285.935c0 4.151 3.364 7.515 7.515 7.515s7.515-3.364 7.515-7.515v-15.029c0-4.151-3.364-7.515-7.515-7.515s-7.515 3.364-7.515 7.515zM312.478 376.111c0 4.151 3.364 7.515 7.515 7.515s7.515-3.364 7.515-7.515v-15.029c0-4.151-3.364-7.515-7.515-7.515s-7.515 3.364-7.515 7.515zM312.478 331.023c0 4.151 3.364 7.515 7.515 7.515s7.515-3.364 7.515-7.515v-15.029c0-4.151-3.364-7.515-7.515-7.515s-7.515 3.364-7.515 7.515zM319.992 158.186a7.514 7.514 0 0 0 7.515-7.515v-15.029c0-4.151-3.364-7.515-7.515-7.515s-7.515 3.364-7.515 7.515v15.029a7.515 7.515 0 0 0 7.515 7.515zM312.478 240.847c0 4.151 3.364 7.515 7.515 7.515s7.515-3.364 7.515-7.515v-15.029c0-4.151-3.364-7.515-7.515-7.515s-7.515 3.364-7.515 7.515zM382.031 311.367v-107.73c0-4.151-3.364-7.515-7.515-7.515s-7.515 3.364-7.515 7.515v107.73a7.515 7.515 0 1 0 15.03 0zM418.102 286.253V228.75c0-4.151-3.364-7.515-7.515-7.515s-7.515 3.364-7.515 7.515v57.503c0 4.151 3.364 7.515 7.515 7.515s7.515-3.364 7.515-7.515zM83.261 221.618v20.179c0 8.871 6.628 16.205 15.188 17.358v64.799c0 12.431 10.113 22.544 22.544 22.544h98.847c12.431 0 22.544-10.113 22.544-22.544v-64.799c8.56-1.153 15.187-8.488 15.187-17.358v-20.179c0-9.668-7.865-17.534-17.534-17.534h-2.291c.157-3.58.164-7.962-.273-12.587-1.93-20.46-10.877-28.938-18.043-32.448-16.525-8.093-30.087 4.428-36.743 14.765h-24.543c-6.655-10.339-20.217-22.863-36.743-14.765-7.166 3.51-16.113 11.988-18.043 32.448-.436 4.625-.43 9.007-.273 12.587h-2.291c-9.667 0-17.533 7.866-17.533 17.534zm15.029 0a2.508 2.508 0 0 1 2.505-2.505h61.407v25.189h-61.407a2.508 2.508 0 0 1-2.505-2.505zm15.188 102.337v-64.623h48.724v72.138h-41.209c-4.144-.001-7.515-3.371-7.515-7.515zm113.877 0c0 4.144-3.371 7.515-7.515 7.515h-42.609v-72.138h50.124zm15.188-102.337v20.179a2.508 2.508 0 0 1-2.505 2.505h-62.807v-25.189h62.807a2.508 2.508 0 0 1 2.505 2.505zm-29.723-49.072c9.203 4.508 10.414 21.04 9.898 31.538h-28.176v-20.819c2.373-4.022 9.763-14.888 18.278-10.719zm-33.306 31.538H161.32v-15.241h18.194zm-51.502-31.538c5.228-4.41 15.74 5.079 18.278 10.743v20.795h-28.176c-.515-10.503.697-27.031 9.898-31.538z" fill="#000000" opacity="1" data-original="#000000"></path></g></svg>